<svg width="110" height="25" viewBox="0 0 110 25" fill="none" xmlns="http://www.w3.org/2000/svg">
<path d="M6.95163 18.192C5.78363 18.192 4.74363 17.992 3.83163 17.592C2.91963 17.192 2.19963 16.648 1.67163 15.96C1.14363 15.256 0.847625 14.472 0.783625 13.608H4.83963C4.88763 14.072 5.10363 14.448 5.48763 14.736C5.87163 15.024 6.34363 15.168 6.90363 15.168C7.41563 15.168 7.80763 15.072 8.07963 14.88C8.36763 14.672 8.51163 14.408 8.51163 14.088C8.51163 13.704 8.31163 13.424 7.91163 13.248C7.51163 13.056 6.86363 12.848 5.96763 12.624C5.00763 12.4 4.20763 12.168 3.56763 11.928C2.92763 11.672 2.37563 11.28 1.91163 10.752C1.44763 10.208 1.21563 9.48 1.21563 8.568C1.21563 7.8 1.42363 7.104 1.83963 6.48C2.27163 5.84 2.89563 5.336 3.71163 4.968C4.54363 4.6 5.52763 4.416 6.66363 4.416C8.34363 4.416 9.66363 4.832 10.6236 5.664C11.5996 6.496 12.1596 7.6 12.3036 8.976H8.51163C8.44763 8.512 8.23963 8.144 7.88763 7.872C7.55163 7.6 7.10363 7.464 6.54363 7.464C6.06363 7.464 5.69563 7.56 5.43963 7.752C5.18363 7.928 5.05563 8.176 5.05563 8.496C5.05563 8.88 5.25563 9.168 5.65563 9.36C6.07163 9.552 6.71163 9.744 7.57563 9.936C8.56763 10.192 9.37563 10.448 9.99963 10.704C10.6236 10.944 11.1676 11.344 11.6316 11.904C12.1116 12.448 12.3596 13.184 12.3756 14.112C12.3756 14.896 12.1516 15.6 11.7036 16.224C11.2716 16.832 10.6396 17.312 9.80763 17.664C8.99163 18.016 8.03963 18.192 6.95163 18.192ZM20.3344 18.192C19.1664 18.192 18.1264 17.992 17.2144 17.592C16.3024 17.192 15.5824 16.648 15.0544 15.96C14.5264 15.256 14.2304 14.472 14.1664 13.608H18.2224C18.2704 14.072 18.4864 14.448 18.8704 14.736C19.2544 15.024 19.7264 15.168 20.2864 15.168C20.7984 15.168 21.1904 15.072 21.4624 14.88C21.7504 14.672 21.8944 14.408 21.8944 14.088C21.8944 13.704 21.6944 13.424 21.2944 13.248C20.8944 13.056 20.2464 12.848 19.3504 12.624C18.3904 12.4 17.5904 12.168 16.9504 11.928C16.3104 11.672 15.7584 11.28 15.2944 10.752C14.8304 10.208 14.5984 9.48 14.5984 8.568C14.5984 7.8 14.8064 7.104 15.2224 6.48C15.6544 5.84 16.2784 5.336 17.0944 4.968C17.9264 4.6 18.9104 4.416 20.0464 4.416C21.7264 4.416 23.0464 4.832 24.0064 5.664C24.9824 6.496 25.5424 7.6 25.6864 8.976H21.8944C21.8304 8.512 21.6224 8.144 21.2704 7.872C20.9344 7.6 20.4864 7.464 19.9264 7.464C19.4464 7.464 19.0784 7.56 18.8224 7.752C18.5664 7.928 18.4384 8.176 18.4384 8.496C18.4384 8.88 18.6384 9.168 19.0384 9.36C19.4544 9.552 20.0944 9.744 20.9584 9.936C21.9504 10.192 22.7584 10.448 23.3824 10.704C24.0064 10.944 24.5504 11.344 25.0144 11.904C25.4944 12.448 25.7424 13.184 25.7584 14.112C25.7584 14.896 25.5344 15.6 25.0864 16.224C24.6544 16.832 24.0224 17.312 23.1904 17.664C22.3744 18.016 21.4224 18.192 20.3344 18.192ZM38.5893 7.872V11.28H28.0293V7.872H38.5893ZM48.2871 18.168C47.0551 18.168 45.9511 17.968 44.9751 17.568C43.9991 17.168 43.2151 16.576 42.6231 15.792C42.0471 15.008 41.7431 14.064 41.7111 12.96H46.0791C46.1431 13.584 46.3591 14.064 46.7271 14.4C47.0951 14.72 47.5751 14.88 48.1671 14.88C48.7751 14.88 49.2551 14.744 49.6071 14.472C49.9591 14.184 50.1351 13.792 50.1351 13.296C50.1351 12.88 49.9911 12.536 49.7031 12.264C49.4311 11.992 49.0871 11.768 48.6711 11.592C48.2711 11.416 47.6951 11.216 46.9431 10.992C45.8551 10.656 44.9671 10.32 44.2791 9.984C43.5911 9.648 42.9991 9.152 42.5031 8.496C42.0071 7.84 41.7591 6.984 41.7591 5.928C41.7591 4.36 42.3271 3.136 43.4631 2.256C44.5991 1.36 46.0791 0.912 47.9031 0.912C49.7591 0.912 51.2551 1.36 52.3911 2.256C53.5271 3.136 54.1351 4.368 54.2151 5.952H49.7751C49.7431 5.408 49.5431 4.984 49.1751 4.68C48.8071 4.36 48.3351 4.2 47.7591 4.2C47.2631 4.2 46.8631 4.336 46.5591 4.608C46.2551 4.864 46.1031 5.24 46.1031 5.736C46.1031 6.28 46.3591 6.704 46.8711 7.008C47.3831 7.312 48.1831 7.64 49.2711 7.992C50.3591 8.36 51.2391 8.712 51.9111 9.048C52.5991 9.384 53.1911 9.872 53.6871 10.512C54.1831 11.152 54.4311 11.976 54.4311 12.984C54.4311 13.944 54.1831 14.816 53.6871 15.6C53.2071 16.384 52.5031 17.008 51.5751 17.472C50.6471 17.936 49.5511 18.168 48.2871 18.168ZM65.1888 4.464C66.7248 4.464 67.9568 4.976 68.8848 6C69.8128 7.008 70.2768 8.4 70.2768 10.176V18H66.1968V10.728C66.1968 9.832 65.9648 9.136 65.5008 8.64C65.0368 8.144 64.4128 7.896 63.6288 7.896C62.8448 7.896 62.2208 8.144 61.7568 8.64C61.2928 9.136 61.0608 9.832 61.0608 10.728V18H56.9568V0.24H61.0608V6.408C61.4768 5.816 62.0448 5.344 62.7648 4.992C63.4848 4.64 64.2928 4.464 65.1888 4.464ZM79.2246 18.192C77.9126 18.192 76.7286 17.912 75.6726 17.352C74.6326 16.792 73.8086 15.992 73.2006 14.952C72.6086 13.912 72.3126 12.696 72.3126 11.304C72.3126 9.928 72.6166 8.72 73.2246 7.68C73.8326 6.624 74.6646 5.816 75.7206 5.256C76.7766 4.696 77.9606 4.416 79.2726 4.416C80.5846 4.416 81.7686 4.696 82.8246 5.256C83.8806 5.816 84.7126 6.624 85.3206 7.68C85.9286 8.72 86.2326 9.928 86.2326 11.304C86.2326 12.68 85.9206 13.896 85.2966 14.952C84.6886 15.992 83.8486 16.792 82.7766 17.352C81.7206 17.912 80.5366 18.192 79.2246 18.192ZM79.2246 14.64C80.0086 14.64 80.6726 14.352 81.2166 13.776C81.7766 13.2 82.0566 12.376 82.0566 11.304C82.0566 10.232 81.7846 9.408 81.2406 8.832C80.7126 8.256 80.0566 7.968 79.2726 7.968C78.4726 7.968 77.8086 8.256 77.2806 8.832C76.7526 9.392 76.4886 10.216 76.4886 11.304C76.4886 12.376 76.7446 13.2 77.2566 13.776C77.7846 14.352 78.4406 14.64 79.2246 14.64ZM92.5139 6.504C92.9139 5.88 93.4659 5.376 94.1699 4.992C94.8739 4.608 95.6979 4.416 96.6419 4.416C97.7459 4.416 98.7459 4.696 99.6419 5.256C100.538 5.816 101.242 6.616 101.754 7.656C102.282 8.696 102.546 9.904 102.546 11.28C102.546 12.656 102.282 13.872 101.754 14.928C101.242 15.968 100.538 16.776 99.6419 17.352C98.7459 17.912 97.7459 18.192 96.6419 18.192C95.7139 18.192 94.8899 18 94.1699 17.616C93.4659 17.232 92.9139 16.736 92.5139 16.128V24.384H88.4099V4.608H92.5139V6.504ZM98.3699 11.28C98.3699 10.256 98.0819 9.456 97.5059 8.88C96.9459 8.288 96.2499 7.992 95.4179 7.992C94.6019 7.992 93.9059 8.288 93.3299 8.88C92.7699 9.472 92.4899 10.28 92.4899 11.304C92.4899 12.328 92.7699 13.136 93.3299 13.728C93.9059 14.32 94.6019 14.616 95.4179 14.616C96.2339 14.616 96.9299 14.32 97.5059 13.728C98.0819 13.12 98.3699 12.304 98.3699 11.28ZM106.619 18.192C105.899 18.192 105.307 17.984 104.843 17.568C104.395 17.136 104.171 16.608 104.171 15.984C104.171 15.344 104.395 14.808 104.843 14.376C105.307 13.944 105.899 13.728 106.619 13.728C107.323 13.728 107.899 13.944 108.347 14.376C108.811 14.808 109.043 15.344 109.043 15.984C109.043 16.608 108.811 17.136 108.347 17.568C107.899 17.984 107.323 18.192 106.619 18.192Z" fill="black"/>
</svg>
